<svg viewBox="0 0 524 178" fill="none" xmlns="http://www.w3.org/2000/svg">
<path d="M0 38.641V134.781L64.4596 177.998L75.0807 171.406V6.2281L63.7271 0.00189209L0 38.641Z" fill="#4F95FF"/>
<path d="M117.566 24.1742L89.9141 33.6966L90.0972 143.388L118.298 153.826L123.975 150.53V27.1042L117.566 24.1742Z" fill="#4F95FF"/>
<path d="M154.008 37.5422L138.809 41.3878V136.429L154.374 140.458L157.853 138.26V39.7397L154.008 37.5422Z" fill="#4F95FF"/>
<path d="M331.843 42.102V140H317.158V83.3378L318.345 56.3417H318.196L288.382 140H275.181L245.366 56.3417H245.218L246.405 83.3378V140H231.72V42.102H255.304L275.032 98.7642L281.856 122.052H282.152L289.124 98.7642L308.703 42.102H331.843ZM363.748 53.3751C360.287 53.3751 357.617 52.5346 355.738 50.8535C353.958 49.0736 353.068 46.6014 353.068 43.437C353.068 40.2726 353.958 37.8499 355.738 36.1688C357.617 34.4878 360.287 33.6472 363.748 33.6472C367.11 33.6472 369.681 34.4878 371.461 36.1688C373.34 37.8499 374.279 40.2726 374.279 43.437C374.279 46.6014 373.34 49.0736 371.461 50.8535C369.681 52.5346 367.11 53.3751 363.748 53.3751ZM371.609 65.8349V140H355.738V65.8349H371.609ZM393.475 140V65.8349H406.973L408.457 79.1846C410.434 74.3391 413.351 70.6803 417.208 68.2082C421.164 65.6371 426.009 64.3516 431.744 64.3516C433.228 64.3516 434.711 64.4999 436.194 64.7966C437.678 64.9943 438.914 65.3405 439.903 65.8349L437.678 79.7779C436.59 79.3824 435.354 79.0857 433.969 78.8879C432.684 78.5913 430.904 78.443 428.629 78.443C425.564 78.443 422.548 79.2835 419.581 80.9646C416.615 82.5468 414.143 84.9695 412.165 88.2327C410.286 91.496 409.347 95.6493 409.347 100.692V140H393.475ZM493.201 92.386C493.201 87.4417 491.816 83.6345 489.047 80.9646C486.377 78.1957 482.669 76.8113 477.923 76.8113C473.473 76.8113 469.666 77.8496 466.501 79.9263C463.337 82.0029 461.013 85.365 459.53 90.0127L446.18 84.3762C448.059 78.3441 451.718 73.4986 457.156 69.8398C462.694 66.181 469.814 64.3516 478.516 64.3516C484.449 64.3516 489.69 65.3404 494.239 67.3182C498.788 69.197 502.348 72.0648 504.919 75.9213C507.589 79.7779 508.924 84.7223 508.924 90.7544V123.832C508.924 127.491 510.753 129.32 514.412 129.32C516.192 129.32 517.922 129.073 519.603 128.579L518.713 139.555C516.439 140.643 513.571 141.187 510.11 141.187C506.946 141.187 504.078 140.643 501.507 139.555C499.035 138.368 497.057 136.638 495.574 134.363C494.19 131.99 493.497 129.073 493.497 125.612V124.574L496.761 124.425C495.871 128.282 494.041 131.496 491.272 134.067C488.504 136.539 485.29 138.418 481.631 139.703C477.972 140.89 474.264 141.483 470.506 141.483C465.858 141.483 461.656 140.742 457.898 139.258C454.239 137.775 451.322 135.55 449.147 132.583C447.07 129.518 446.032 125.76 446.032 121.31C446.032 115.773 447.812 111.224 451.372 107.664C455.03 104.104 460.172 101.681 466.798 100.396L495.574 94.7593L495.426 105.884L474.511 110.186C470.358 110.977 467.243 112.114 465.166 113.597C463.09 115.081 462.051 117.256 462.051 120.124C462.051 122.893 463.09 125.118 465.166 126.799C467.342 128.381 470.209 129.172 473.769 129.172C476.242 129.172 478.615 128.875 480.889 128.282C483.263 127.689 485.389 126.749 487.267 125.464C489.146 124.079 490.58 122.349 491.569 120.272C492.657 118.097 493.201 115.526 493.201 112.559V92.386Z" fill="#4F95FF"/>
</svg>
