<svg viewBox="0 0 162 25" fill="none" xmlns="http://www.w3.org/2000/svg">
<g clip-path="url(#clip0_1807_108)">
<path fill-rule="evenodd" clip-rule="evenodd" d="M6.10448 4.7429V10.4653H1.57031V4.7429H6.10448ZM6.13811 0.438522H16.2938V4.7429H6.13811V0.438522ZM155.379 14.3717L161.981 23.7371H156.623L152.353 17.5608L150.548 19.4663V23.7371H146.176V-0.0546875H150.548V13.5815L156.13 7.56765H161.852L155.379 14.3717ZM1.57031 23.7371V14.6856H6.13811V10.4933H15.1784V14.6688H6.13811V23.7371H1.57031ZM27.7721 11.9057C27.2845 11.8048 26.8529 11.7768 26.4606 11.7768C24.2244 11.7768 22.2851 12.8584 22.2851 16.3445V23.7371H17.9135V7.56765H22.1562V9.96645C23.1427 7.83107 25.3733 7.43874 26.7577 7.43874C27.1164 7.43874 27.447 7.46677 27.7721 7.50039V11.9057ZM34.8564 24.1967C31.4039 24.1967 29.3022 21.8651 29.3022 19.3318C29.3022 16.4398 31.4376 14.8313 34.1334 14.4334L38.1071 13.8449C39.0319 13.7104 39.3233 13.2508 39.3233 12.6959C39.3233 11.5414 38.4378 10.5886 36.5994 10.5886C34.6939 10.5886 33.6402 11.8048 33.5113 13.2228L29.6329 12.3989C29.8963 9.86556 32.2278 7.07444 36.5658 7.07444C41.6941 7.07444 43.5997 9.96644 43.5997 13.2228V21.1758C43.5997 22.0277 43.6949 23.1766 43.7958 23.7371H39.7885C39.6876 23.3111 39.6204 22.42 39.6204 21.7979C38.8021 23.0814 37.2552 24.1967 34.8564 24.1967ZM33.6738 19.0684C33.6738 20.0212 34.3632 20.9404 35.7756 20.9404C37.6195 20.9404 39.3233 20.0548 39.3233 17.1965V16.4735L35.6803 17.0339C34.5594 17.1965 33.6738 17.8186 33.6738 19.0684ZM46.2283 23.7371V7.56765H50.3981V9.54049C51.2893 7.95998 53.3574 7.10807 55.1341 7.10807C57.3311 7.10807 59.1078 8.06086 59.9317 9.80391C61.2095 7.83107 62.9189 7.10807 65.0543 7.10807C68.0472 7.10807 70.9056 8.91277 70.9056 13.2508V23.7371H66.6685V14.1419C66.6685 12.3989 65.8109 11.0818 63.8101 11.0818C61.9325 11.0818 60.8172 12.5278 60.8172 14.2708V23.7371H56.4792V14.1419C56.4792 12.3989 55.5936 11.0818 53.6208 11.0818C51.7152 11.0818 50.5943 12.4998 50.5943 14.2708V23.7371H46.2283ZM97.0233 17.9531L100.537 7.56765H105.139L108.619 17.9867L111.612 7.56765H115.95L110.889 23.7371H106.518L102.74 12.6959L99.0242 23.7371H94.5909L89.429 7.56765H94.0304L97.0233 17.9531ZM132.787 15.6496C132.787 20.6153 129.138 24.2303 124.307 24.2303C119.476 24.2303 115.827 20.6153 115.827 15.6496C115.827 10.6558 119.476 7.07444 124.307 7.07444C129.138 7.07444 132.787 10.6558 132.787 15.6496ZM128.415 15.6496C128.415 12.595 126.442 11.0537 124.307 11.0537C122.171 11.0537 120.199 12.595 120.199 15.6496C120.199 18.6761 122.171 20.251 124.307 20.251C126.442 20.251 128.415 18.7097 128.415 15.6496ZM143.301 7.43874C143.66 7.43874 143.99 7.46677 144.315 7.50039V11.9057C143.822 11.8048 143.396 11.7768 143.004 11.7768C140.768 11.7768 138.828 12.8584 138.828 16.3445V23.7371H134.457V7.56765H138.7V9.96645C139.686 7.83107 141.917 7.43874 143.301 7.43874Z" fill="black"/>
<path fill-rule="evenodd" clip-rule="evenodd" d="M88.6161 19.1028C87.7922 21.8939 85.2309 24.2311 81.2516 24.2311C76.8183 24.2311 72.9062 21.042 72.9062 15.5887C72.9062 10.4268 76.7174 7.0752 80.8593 7.0752C85.853 7.0752 88.8459 10.2642 88.8459 15.4542C88.8459 16.0819 88.7787 16.7376 88.7787 16.8049H77.2106C77.3115 18.9403 79.1162 20.4815 81.2852 20.4815C83.3253 20.4815 84.4406 19.4671 84.9675 18.0211L88.6161 19.1028ZM84.5415 13.812C84.4743 12.2035 83.4206 10.6229 80.9265 10.6229C78.6566 10.6229 77.4068 12.3324 77.3115 13.812H84.5415Z" fill="black"/>
</g>
<defs>
<clipPath id="clip0_1807_108">
<rect width="161.025" height="24.0239" fill="white" transform="translate(0.976562 0.472656)"/>
</clipPath>
</defs>
</svg>
