<svg width="91" height="28" viewBox="0 0 91 28" fill="none" xmlns="http://www.w3.org/2000/svg">
<g clip-path="url(#clip0_2002_3121)">
<path d="M12.9109 25.8369C19.4481 25.8369 24.7475 20.5374 24.7475 14.0002C24.7475 7.46303 19.4481 2.16357 12.9109 2.16357C6.37367 2.16357 1.07422 7.46303 1.07422 14.0002C1.07422 20.5374 6.37367 25.8369 12.9109 25.8369Z" stroke="black" stroke-width="1.12021"/>
<path d="M11.7632 15.5596C11.6129 15.4208 11.5272 15.2257 11.5272 15.0216V13.1958V13.191C11.5272 12.9898 11.6103 12.7974 11.7571 12.6588L12.1631 12.2751C12.4085 12.0432 12.4332 11.6621 12.2192 11.4009L9.94179 8.62015C9.86385 8.52488 9.74724 8.46932 9.6235 8.46835L8.09788 8.45802C7.75624 8.45576 7.5588 8.84267 7.76274 9.11557L10.6832 13.0218C11.268 13.7911 11.268 14.3304 10.6832 15.0997L7.47404 18.9795C7.25159 19.2482 7.44416 19.6528 7.79392 19.6528L9.62513 19.6522C9.74794 19.6522 9.86416 19.5979 9.94311 19.5043L12.2082 16.8033C12.4287 16.5402 12.404 16.1513 12.1513 15.9184L11.7632 15.5603V15.5596Z" fill="black"/>
<path d="M15.0305 15.0997C14.4456 14.3304 14.4456 13.7911 15.0305 13.0218L17.9509 9.11557C18.1549 8.84267 17.9578 8.45576 17.6161 8.45802L16.0904 8.46835C15.9671 8.46932 15.8502 8.52488 15.7722 8.62015L13.4892 11.4079C13.2736 11.6715 13.3006 12.0561 13.551 12.2871L13.9523 12.6575C14.1027 12.7963 14.1884 12.9914 14.1884 13.1955V15.0213V15.0261C14.1884 15.2273 14.1053 15.4197 13.9585 15.5583L13.5645 15.9303C13.3168 16.1645 13.2944 16.5495 13.5132 16.8105L15.7715 19.5033C15.8502 19.597 15.9667 19.6512 16.0895 19.6512L17.9207 19.6519C18.2705 19.6519 18.463 19.2472 18.2406 18.9785L15.0311 15.099L15.0305 15.0997Z" fill="black"/>
<path d="M11.8062 15.5367C11.6559 15.3978 11.5702 15.2027 11.5702 14.9986V13.1729V13.1681C11.5702 12.9669 11.6533 12.7744 11.8001 12.6358L12.206 12.2522C12.4515 12.0203 12.4762 11.6392 12.2622 11.3779L9.98472 8.5972C9.90678 8.50193 9.79025 8.44637 9.6665 8.4454L8.14085 8.43507C7.79921 8.43281 7.60177 8.81972 7.80571 9.09262L10.7261 12.9988C11.311 13.7681 11.311 14.3075 10.7261 15.0768L7.51701 18.9565C7.29456 19.2252 7.48713 19.6298 7.83688 19.6298L9.66813 19.6292C9.79087 19.6292 9.90716 19.575 9.98604 19.4813L12.2512 16.7804C12.4716 16.5172 12.447 16.1283 12.1943 15.8955L11.8062 15.5373V15.5367Z" fill="black"/>
<path d="M15.0773 15.0768C14.4925 14.3075 14.4925 13.7681 15.0773 12.9988L17.9978 9.09262C18.2017 8.81972 18.0046 8.43281 17.663 8.43507L16.1374 8.4454C16.0139 8.44637 15.897 8.50193 15.8191 8.5972L13.5361 11.385C13.3205 11.6486 13.3474 12.0332 13.5978 12.2641L13.9992 12.6345C14.1495 12.7734 14.2353 12.9685 14.2353 13.1726V14.9983V15.0031C14.2353 15.2043 14.1522 15.3968 14.0054 15.5354L13.6115 15.9074C13.3637 16.1416 13.3413 16.5265 13.5601 16.7875L15.8184 19.4803C15.897 19.574 16.0136 19.6283 16.1363 19.6283L17.9676 19.6289C18.3173 19.6289 18.5099 19.2242 18.2875 18.9555L15.078 15.0761L15.0773 15.0768Z" fill="black"/>
<path d="M13.512 13.3563L13.2461 13.1106C13.0645 12.9429 12.7837 12.9445 12.6041 13.1141L12.3475 13.3563C12.3027 13.3986 12.2773 13.4574 12.2773 13.5191V14.6762C12.2773 14.7376 12.303 14.7964 12.3485 14.8381L12.6157 15.0848C12.7973 15.2524 13.0782 15.2508 13.2578 15.0812L13.5153 14.8381C13.5595 14.7964 13.5845 14.7385 13.5845 14.6778V14.6762V13.5207C13.5845 13.4584 13.5585 13.3986 13.5124 13.3563H13.512Z" fill="black"/>
<path d="M33.875 14.3235V3.65091H35.401V8.22714H37.1726L39.6883 5.17496V3.64893H41.2064V5.02653C41.2064 5.19678 41.1985 5.3175 41.1906 5.39863C41.1827 5.55498 41.056 5.90534 40.767 6.2616L38.5423 8.98523L40.767 11.7167C40.9075 11.8948 41.0125 12.067 41.0797 12.2234C41.147 12.3798 41.1847 12.4985 41.1906 12.5797C41.1985 12.6608 41.2064 12.7815 41.2064 12.9518V14.3215H39.6883V12.7954L37.1726 9.75116H35.401V14.3195H33.875V14.3235Z" fill="black"/>
<path d="M51.8611 3.6499L49.852 8.44383H49.4641L47.4452 3.6499H46.2773V4.87113L48.4506 9.61362C48.6545 9.96988 48.7614 10.3717 48.7614 10.7834V14.3224H49.8599H50.5428V10.7834C50.5428 10.3737 50.6497 9.96988 50.8535 9.61362L53.0268 4.87113V3.6499H51.8591H51.8611Z" fill="black"/>
<path d="M58.0977 14.3224V3.6499H63.1291C63.7625 3.6499 64.3049 3.87357 64.7443 4.31298C65.1916 4.75243 65.4133 5.28088 65.4133 5.91227V7.46014C65.4133 8.0559 65.2193 8.56059 64.8393 8.97035C65.2193 9.3801 65.4133 9.89271 65.4133 10.5103V12.0363C65.4133 12.6697 65.1897 13.2041 64.7443 13.6514C64.3049 14.0988 63.7625 14.3205 63.1291 14.3205H58.0977V14.3224ZM59.6238 8.22809H63.1291C63.5468 8.22809 63.8951 7.89357 63.8951 7.47597V5.92811C63.8951 5.51044 63.5448 5.1621 63.1291 5.1621H59.6238V8.22809ZM59.6238 12.7964H63.1291C63.331 12.7964 63.5092 12.7211 63.6655 12.5727C63.8219 12.4164 63.8971 12.2382 63.8971 12.0363V10.5103C63.8971 10.0926 63.5468 9.75219 63.1311 9.75219H59.6257V12.7964H59.6238Z" fill="black"/>
<path d="M70.4805 14.3224V3.6499H77.7961V5.16016H72.0065V8.22615H77.7961V9.75219H72.0065V12.7964H77.7961V14.3224H70.4805Z" fill="black"/>
<path d="M82.8711 14.3225V3.6499H87.5221C88.2588 3.6499 88.8923 3.91117 89.4047 4.43177C89.9256 4.9523 90.1865 5.58572 90.1865 6.32199V7.08009C90.1865 7.7135 89.9846 8.27759 89.591 8.76249C89.1967 9.24545 88.706 9.55226 88.102 9.68485L89.7611 11.7157C89.9016 11.8938 90.0064 12.066 90.0739 12.2224C90.1415 12.3787 90.1787 12.4975 90.1849 12.5787C90.1927 12.6598 90.1981 12.7806 90.1981 12.9508V14.3204H88.6804V12.7944L86.1643 9.75022H84.3935V14.3185H82.8672L82.8711 14.3225ZM84.3973 8.22806H87.5221C87.835 8.22806 88.102 8.11727 88.3264 7.89361C88.5577 7.66203 88.6688 7.39481 88.6688 7.08203V6.32401C88.6688 6.00331 88.5577 5.73609 88.3264 5.50451C88.102 5.27293 87.835 5.16215 87.5221 5.16215H84.3973V8.22806Z" fill="black"/>
<path opacity="0.5" d="M36.7223 23.4322C36.4843 23.4322 36.2653 23.3862 36.0652 23.2943C35.8705 23.2024 35.7056 23.0753 35.5704 22.913C35.4352 22.7454 35.3351 22.5588 35.2703 22.3533L35.3757 22.2154L35.3108 23.3511H34.5483V17.4699H35.4163V20.3172L35.3189 20.1793C35.4217 19.8981 35.5974 19.6683 35.8462 19.4898C36.095 19.3059 36.3951 19.214 36.7466 19.214C37.0711 19.214 37.3685 19.2978 37.6389 19.4655C37.9147 19.6331 38.1311 19.8738 38.2879 20.1874C38.4447 20.5011 38.5231 20.8823 38.5231 21.3312C38.5231 21.7692 38.442 22.1451 38.2798 22.4588C38.1229 22.7724 37.9066 23.0131 37.6308 23.1807C37.3604 23.3484 37.0576 23.4322 36.7223 23.4322ZM36.5357 22.7346C36.8872 22.7346 37.1603 22.6102 37.355 22.3614C37.5551 22.1072 37.6552 21.7611 37.6552 21.3231C37.6552 20.885 37.5578 20.5416 37.3631 20.2929C37.1684 20.0441 36.8953 19.9197 36.5438 19.9197C36.3167 19.9197 36.1193 19.9792 35.9517 20.0982C35.784 20.2118 35.6515 20.374 35.5542 20.5849C35.4622 20.7958 35.4163 21.0473 35.4163 21.3393C35.4163 21.6259 35.4622 21.8747 35.5542 22.0856C35.6461 22.2911 35.7759 22.4506 35.9435 22.5642C36.1166 22.6778 36.314 22.7346 36.5357 22.7346ZM43.0447 19.2951L41.2682 23.8297C41.1492 24.1433 41.0194 24.3921 40.8788 24.576C40.7436 24.7598 40.5868 24.8923 40.4083 24.9735C40.2299 25.0546 40.0217 25.0951 39.7837 25.0951C39.589 25.0951 39.4079 25.0681 39.2402 25.014C39.078 24.9653 38.9347 24.8977 38.8103 24.8112L39.0212 24.1379C39.1239 24.2245 39.2321 24.2894 39.3457 24.3326C39.4647 24.3759 39.5917 24.3975 39.7269 24.3975C39.873 24.3975 40.0027 24.357 40.1163 24.2758C40.2353 24.2001 40.3407 24.046 40.4327 23.8135L40.6111 23.3754L40.1812 22.3695L38.9157 19.2951H39.8892L40.7896 21.8423L41.0248 22.6048L41.2925 21.7692L42.1443 19.2951H43.0447ZM48.1719 17.9161C48.6532 17.9161 49.0696 18.008 49.4211 18.1919C49.7727 18.3703 50.0701 18.6353 50.3135 18.9869L49.7294 19.5466C49.5239 19.2329 49.2913 19.0085 49.0318 18.8733C48.7776 18.7327 48.4747 18.6624 48.1232 18.6624C47.8636 18.6624 47.65 18.6975 47.4824 18.7678C47.3147 18.8381 47.1904 18.9328 47.1092 19.0517C47.0335 19.1653 46.9957 19.2951 46.9957 19.4411C46.9957 19.6088 47.0525 19.7548 47.166 19.8792C47.285 20.0035 47.504 20.1009 47.8231 20.1712L48.9101 20.4146C49.4293 20.5281 49.797 20.7012 50.0133 20.9337C50.2296 21.1663 50.3378 21.461 50.3378 21.8179C50.3378 22.1478 50.2486 22.4344 50.0701 22.6778C49.8916 22.9211 49.6429 23.1077 49.3238 23.2375C49.0101 23.3673 48.6397 23.4322 48.2125 23.4322C47.8339 23.4322 47.4932 23.3835 47.1904 23.2862C46.8875 23.1888 46.6225 23.0563 46.3954 22.8887C46.1683 22.721 45.9817 22.5291 45.8357 22.3127L46.4359 21.7125C46.5495 21.9017 46.6928 22.0721 46.8659 22.2235C47.0389 22.3695 47.239 22.4831 47.4662 22.5642C47.6987 22.6453 47.9556 22.6859 48.2368 22.6859C48.4856 22.6859 48.6992 22.6562 48.8776 22.5967C49.0615 22.5372 49.1994 22.4506 49.2913 22.3371C49.3887 22.2181 49.4374 22.0775 49.4374 21.9153C49.4374 21.7584 49.3833 21.6205 49.2751 21.5016C49.1724 21.3826 48.9777 21.2906 48.6911 21.2257L47.5148 20.9581C47.1904 20.8878 46.9227 20.7877 46.7118 20.6579C46.5008 20.5281 46.344 20.3713 46.2413 20.1874C46.1385 19.9981 46.0871 19.7872 46.0871 19.5547C46.0871 19.2518 46.1683 18.9787 46.3305 18.7354C46.4981 18.4866 46.7388 18.2892 47.0525 18.1432C47.3661 17.9918 47.7393 17.9161 48.1719 17.9161ZM55.9412 23.3511H55.0246L54.5135 21.9477H52.2665L51.7555 23.3511H50.8632L52.883 17.9972H53.9214L55.9412 23.3511ZM52.5099 21.242H54.2702L53.3941 18.7435L52.5099 21.242ZM57.7586 22.6048H60.7114V23.3511H56.8906V17.9972H57.7586V22.6048ZM64.6682 17.9972V18.7435H62.8349V23.3511H61.9669V18.7435H60.1336V17.9972H64.6682Z" fill="black"/>
</g>
<defs>
<clipPath id="clip0_2002_3121">
<rect width="90.1362" height="27" fill="white" transform="translate(0.0585938 0.5)"/>
</clipPath>
</defs>
</svg>
