<svg viewBox="0 0 78 38" fill="none" xmlns="http://www.w3.org/2000/svg">
<path fill-rule="evenodd" clip-rule="evenodd" d="M1.702 34.1476V2.04371H76.2638V7.61546H77.3251V2.04371V0.982422H76.2638H1.702H0.640625V2.04371V34.1476H1.702ZM70.6915 33.0863H76.2638V25.6573H77.3251V33.0863V34.1476H76.2638H70.6915V33.0863ZM39.854 34.1094V26.2198H42.2315V34.1094H39.854ZM41.0428 24.6597C40.597 24.6597 40.2454 24.5557 39.9877 24.3477C39.7402 24.1298 39.6163 23.8227 39.6163 23.4265C39.6163 23.0699 39.745 22.7777 40.0026 22.5499C40.2603 22.3221 40.6068 22.2082 41.0428 22.2082C41.4885 22.2082 41.8353 22.3171 42.0829 22.5351C42.3305 22.743 42.4544 23.0402 42.4544 23.4265C42.4544 23.793 42.3257 24.0902 42.068 24.318C41.8205 24.5458 41.4787 24.6597 41.0428 24.6597ZM14.2602 34.258C13.4777 34.258 12.7545 34.1293 12.0907 33.8717C11.437 33.6042 10.8674 33.2328 10.3819 32.7573C9.89658 32.2721 9.52008 31.7024 9.25267 31.0487C8.9951 30.3851 8.8663 29.6571 8.8663 28.8645C8.8663 28.0919 9.00494 27.3787 9.28233 26.725C9.55972 26.0713 9.94116 25.5066 10.4265 25.0312C10.9218 24.5458 11.5014 24.1694 12.1651 23.902C12.8387 23.6345 13.5718 23.5008 14.3643 23.5008C14.8596 23.5008 15.3449 23.5652 15.8204 23.694C16.2959 23.8227 16.7367 24.0159 17.1429 24.2734C17.5589 24.521 17.9156 24.8182 18.2128 25.1649L16.6674 26.933C16.4594 26.7151 16.2365 26.5269 15.9987 26.3684C15.771 26.2 15.5183 26.0713 15.2409 25.9821C14.9635 25.8929 14.6664 25.8484 14.3494 25.8484C13.9532 25.8484 13.5767 25.9227 13.2201 26.0713C12.8733 26.2099 12.5662 26.413 12.2988 26.6804C12.0412 26.938 11.8382 27.2549 11.6896 27.6313C11.541 28.0078 11.4666 28.4286 11.4666 28.8943C11.4666 29.3498 11.541 29.7658 11.6896 30.1423C11.8382 30.5087 12.0462 30.8258 12.3137 31.0932C12.5811 31.3607 12.9031 31.5637 13.2795 31.7024C13.6658 31.8412 14.0918 31.9104 14.5575 31.9104C14.8744 31.9104 15.1765 31.8659 15.4638 31.7767C15.7511 31.6876 16.0136 31.5687 16.2514 31.4201C16.499 31.2617 16.717 31.0834 16.9051 30.8852L18.1237 32.8168C17.876 33.094 17.5441 33.3418 17.1281 33.5597C16.722 33.7775 16.2663 33.951 15.761 34.0797C15.2657 34.1986 14.7654 34.258 14.2602 34.258ZM23.0428 34.2431C22.379 34.2431 21.7847 34.0699 21.2597 33.7231C20.7446 33.3665 20.3335 32.8812 20.0263 32.267C19.7193 31.643 19.5657 30.9396 19.5657 30.1572C19.5657 29.3549 19.7193 28.6467 20.0263 28.0325C20.3335 27.4184 20.7544 26.938 21.2894 26.5913C21.8244 26.2347 22.4336 26.0564 23.1171 26.0564C23.4935 26.0564 23.8353 26.1109 24.1424 26.2198C24.4594 26.3288 24.7368 26.4823 24.9746 26.6804C25.1588 26.8263 25.3222 26.993 25.4648 27.1805V26.2198H27.8275V34.1094H25.4203V33.1691C25.2735 33.3403 25.105 33.4952 24.9151 33.634C24.6575 33.8221 24.3703 33.9707 24.0533 34.0797C23.7362 34.1888 23.3995 34.2431 23.0428 34.2431ZM23.6966 32.2373C24.0631 32.2373 24.3801 32.1532 24.6475 31.9847C24.9151 31.8162 25.123 31.5785 25.2717 31.2715C25.4203 30.9545 25.4946 30.583 25.4946 30.1572C25.4946 29.7313 25.4203 29.3647 25.2717 29.0577C25.123 28.7406 24.9151 28.4981 24.6475 28.3297C24.3801 28.1514 24.0631 28.0622 23.6966 28.0622C23.34 28.0622 23.0279 28.1514 22.7605 28.3297C22.5029 28.4981 22.2999 28.7406 22.1513 29.0577C22.0026 29.3647 21.9283 29.7313 21.9283 30.1572C21.9283 30.583 22.0026 30.9545 22.1513 31.2715C22.2999 31.5785 22.5029 31.8162 22.7605 31.9847C23.0279 32.1532 23.34 32.2373 23.6966 32.2373ZM29.9254 26.2198V37.3782H32.3177V33.3071C32.595 33.5944 32.9367 33.8221 33.343 33.9906C33.7492 34.159 34.1751 34.2431 34.6209 34.2431C35.3044 34.2431 35.9086 34.0699 36.4337 33.7231C36.9687 33.3665 37.3847 32.8812 37.6819 32.267C37.9889 31.6528 38.1425 30.9497 38.1425 30.1572C38.1425 29.3549 37.9889 28.6515 37.6819 28.0474C37.3847 27.4332 36.9737 26.9528 36.4486 26.6061C35.9235 26.2496 35.3243 26.0713 34.6506 26.0713C34.195 26.0713 33.759 26.1554 33.343 26.3238C32.9367 26.4823 32.6 26.6953 32.3326 26.9627C32.2954 26.9998 32.2604 27.0374 32.2269 27.0756L32.184 26.2198H29.9254ZM34.9775 31.9847C34.71 32.1532 34.398 32.2373 34.0414 32.2373C33.6749 32.2373 33.3578 32.1532 33.0904 31.9847C32.8229 31.8064 32.6149 31.5637 32.4663 31.2567C32.3177 30.9497 32.2434 30.583 32.2434 30.1572C32.2434 29.7412 32.3177 29.3748 32.4663 29.0577C32.6149 28.7406 32.8229 28.4981 33.0904 28.3297C33.3578 28.1612 33.6749 28.0771 34.0414 28.0771C34.4078 28.0771 34.7199 28.1662 34.9775 28.3445C35.245 28.513 35.453 28.7555 35.6016 29.0726C35.7502 29.3795 35.8245 29.7412 35.8245 30.1572C35.8245 30.583 35.7502 30.9497 35.6016 31.2567C35.453 31.5637 35.245 31.8064 34.9775 31.9847ZM45.6499 28.2999V34.1094H48.0274V28.2999H49.8233V26.2198H48.0274V24.2288H45.6499V26.2198H43.9878V28.2999H45.6499ZM54.5525 34.2431C53.8886 34.2431 53.2942 34.0699 52.7694 33.7231C52.2541 33.3665 51.8431 32.8812 51.5361 32.267C51.2288 31.643 51.0754 30.9396 51.0754 30.1572C51.0754 29.3549 51.2288 28.6467 51.5361 28.0325C51.8431 27.4184 52.2642 26.938 52.7991 26.5913C53.334 26.2347 53.9433 26.0564 54.6268 26.0564C55.003 26.0564 55.3448 26.1109 55.6521 26.2198C55.9689 26.3288 56.2464 26.4823 56.4842 26.6804C56.6683 26.8263 56.8318 26.993 56.9746 27.1805V26.2198H59.3372V34.1094H56.93V33.1691C56.8445 33.2686 56.7519 33.3625 56.6522 33.4512C56.58 33.5148 56.5044 33.5759 56.4248 33.634C56.364 33.6783 56.3019 33.7202 56.238 33.7603C56.1929 33.7884 56.1469 33.8154 56.1002 33.8414C55.9317 33.9351 55.7526 34.0144 55.5629 34.0797C55.2458 34.1888 54.9091 34.2431 54.5525 34.2431ZM55.2063 32.2373C55.5727 32.2373 55.8898 32.1532 56.1573 31.9847C56.4248 31.8162 56.6328 31.5785 56.7814 31.2715C56.93 30.9545 57.0043 30.583 57.0043 30.1572C57.0043 29.7313 56.93 29.3647 56.7814 29.0577C56.6328 28.7406 56.4248 28.4981 56.1573 28.3297C55.8898 28.1514 55.5727 28.0622 55.2063 28.0622C54.8497 28.0622 54.5376 28.1514 54.2702 28.3297C54.0125 28.4981 53.8095 28.7406 53.6609 29.0577C53.5123 29.3647 53.438 29.7313 53.438 30.1572C53.438 30.583 53.5123 30.9545 53.6609 31.2715C53.8095 31.5785 54.0125 31.8162 54.2702 31.9847C54.5376 32.1532 54.8497 32.2373 55.2063 32.2373ZM61.4499 23.1145V34.1094H63.8273V23.1145H61.4499ZM46.5256 19.7184C46.1689 19.7184 45.8272 19.6689 45.5003 19.5698C45.1734 19.4707 44.8762 19.337 44.6087 19.1686C44.3999 19.0321 44.2171 18.8792 44.0602 18.71L43.9995 19.5401H41.7854V8.56003H44.1778V12.4801C44.3179 12.3266 44.4813 12.1887 44.6681 12.0665C44.9258 11.8882 45.2081 11.7495 45.5151 11.6505C45.8221 11.5514 46.1392 11.5019 46.4661 11.5019C47.1497 11.5019 47.7538 11.6802 48.279 12.0368C48.8139 12.3835 49.235 12.8688 49.542 13.4929C49.849 14.107 50.0026 14.8103 50.0026 15.6027C50.0026 16.4051 49.849 17.1182 49.542 17.7423C49.2448 18.3564 48.8338 18.8418 48.3087 19.1983C47.7836 19.545 47.1892 19.7184 46.5256 19.7184ZM45.9015 17.7125C46.2581 17.7125 46.5701 17.6234 46.8376 17.4451C47.1051 17.2668 47.3081 17.0241 47.4468 16.7171C47.5954 16.4001 47.6697 16.0287 47.6697 15.6027C47.6697 15.1867 47.5954 14.8202 47.4468 14.5032C47.3081 14.1863 47.1051 13.9436 46.8376 13.7751C46.5701 13.6068 46.2581 13.5226 45.9015 13.5226C45.535 13.5226 45.2179 13.6068 44.9505 13.7751C44.683 13.9436 44.475 14.1863 44.3264 14.5032C44.1778 14.8202 44.1035 15.1867 44.1035 15.6027C44.1035 16.0287 44.1778 16.4001 44.3264 16.7171C44.475 17.0241 44.683 17.2668 44.9505 17.4451C45.2179 17.6234 45.535 17.7125 45.9015 17.7125ZM27.7426 11.6653V19.5549H30.135V14.8449C30.135 14.8225 30.1355 14.8003 30.1366 14.7783C30.1384 14.73 30.1432 14.6827 30.1501 14.6364C30.1602 14.5698 30.1748 14.5053 30.1947 14.443C30.2074 14.4027 30.222 14.3634 30.239 14.3249C30.3082 14.1664 30.4024 14.0278 30.5213 13.9089C30.65 13.79 30.7986 13.6959 30.9671 13.6266C31.1454 13.5573 31.3386 13.5226 31.5466 13.5226C31.657 13.5226 31.761 13.5343 31.8584 13.5578C31.9712 13.5849 32.0752 13.6276 32.1707 13.686C32.349 13.795 32.4827 13.9535 32.5719 14.1615C32.6199 14.2733 32.6547 14.3979 32.677 14.5353C32.6961 14.6537 32.7056 14.7817 32.7056 14.9192V19.5549H35.098V14.8598C35.098 14.6617 35.1327 14.4834 35.202 14.3249C35.2386 14.2409 35.2824 14.1625 35.3331 14.0897C35.3625 14.0472 35.3946 14.0066 35.4286 13.9679C35.4466 13.9477 35.4652 13.928 35.4843 13.9089C35.613 13.79 35.7616 13.6959 35.9301 13.6266C36.1084 13.5573 36.3016 13.5226 36.5096 13.5226C36.7673 13.5226 36.9801 13.5771 37.1486 13.686C37.3269 13.7851 37.4606 13.9386 37.5498 14.1466C37.6389 14.3546 37.6835 14.6171 37.6835 14.9341V19.5549H40.0758V14.7409C40.0758 14.0476 39.9668 13.4582 39.7489 12.9728C39.5409 12.4875 39.2289 12.1259 38.8128 11.8882C38.3967 11.6406 37.8767 11.5168 37.2526 11.5168C37.005 11.5168 36.7474 11.5514 36.4799 11.6207C36.2124 11.6901 35.9548 11.7941 35.7072 11.9328C35.4596 12.0616 35.2317 12.225 35.0237 12.4231C34.8703 12.5687 34.7376 12.7292 34.6259 12.9045C34.5124 12.6538 34.3776 12.4438 34.2213 12.2745C33.9835 12.0071 33.7062 11.8139 33.3892 11.695C33.0721 11.5762 32.7205 11.5168 32.3341 11.5168C32.2296 11.5168 32.1251 11.5225 32.0205 11.5339C31.8674 11.5506 31.7146 11.5796 31.5615 11.6207C31.3139 11.6901 31.0711 11.7941 30.8334 11.9328C30.6054 12.0616 30.3974 12.225 30.2093 12.4231C30.1535 12.485 30.1007 12.5498 30.0509 12.6175L30.0012 11.6653H27.7426ZM20.8168 19.3369L19.2732 22.9723H21.6359L23.0029 19.5549L26.361 11.6653H23.6566L22.2005 15.8404L21.9747 16.4915C21.9622 16.4501 21.9492 16.4084 21.9354 16.3663C21.9251 16.3349 21.9144 16.3032 21.9033 16.2713C21.8665 16.1655 21.8285 16.0628 21.7895 15.9633C21.7625 15.8941 21.7349 15.8265 21.7067 15.7603C21.6882 15.717 21.6696 15.6744 21.6506 15.6324L19.9864 11.6653H17.297L20.8168 19.3369ZM61.3652 8.56003V19.5549H63.7427V8.56003H61.3652ZM74.0707 19.7035C73.3078 19.7035 72.6243 19.5252 72.0201 19.1686C71.4159 18.812 70.9354 18.3267 70.5788 17.7125C70.232 17.0885 70.0587 16.3852 70.0587 15.6027C70.0587 14.8202 70.232 14.1219 70.5788 13.5077C70.9354 12.8837 71.4159 12.3934 72.0201 12.0368C72.6243 11.6802 73.3078 11.5019 74.0707 11.5019C74.7741 11.5019 75.4179 11.6257 76.0024 11.8733C76.5968 12.121 77.0672 12.4677 77.414 12.9134L76.1213 14.4586L76.0828 14.4158C75.9528 14.2733 75.8021 14.139 75.6309 14.0129C75.4428 13.8742 75.2348 13.7653 75.0068 13.686C74.7789 13.6068 74.5411 13.5672 74.2936 13.5672C73.9171 13.5672 73.5854 13.6563 73.298 13.8346C73.0106 14.003 72.7878 14.2407 72.6293 14.5478C72.4709 14.8549 72.3916 15.2065 72.3916 15.6027C72.3916 15.9791 72.4709 16.3209 72.6293 16.6279C72.7978 16.935 73.0255 17.1777 73.3129 17.356C73.6002 17.5342 73.9271 17.6234 74.2936 17.6234C74.5512 17.6234 74.789 17.5937 75.0068 17.5342C75.2247 17.4649 75.4229 17.3659 75.6012 17.2371C75.7893 17.1083 75.9629 16.9498 76.1213 16.7616L77.3992 18.3217C77.0624 18.7477 76.5917 19.0844 75.9875 19.3321C75.3932 19.5797 74.7542 19.7035 74.0707 19.7035ZM65.8347 11.6653V19.5549H68.2122V11.6653H65.8347ZM65.9684 9.79322C66.2258 10.0012 66.5776 10.1052 67.0234 10.1052C67.4591 10.1052 67.8009 9.99134 68.0487 9.76348C68.3061 9.5357 68.435 9.23854 68.435 8.87203C68.435 8.48572 68.3111 8.18856 68.0636 7.98055C67.8157 7.76264 67.4692 7.65367 67.0234 7.65367C66.5874 7.65367 66.2406 7.7676 65.9833 7.9954C65.7256 8.22321 65.5969 8.51543 65.5969 8.87203C65.5969 9.26826 65.7206 9.57531 65.9684 9.79322ZM55.7187 19.7035C54.8964 19.7035 54.1635 19.5252 53.5195 19.1686C52.8856 18.812 52.3804 18.3267 52.0039 17.7125C51.6374 17.0984 51.4541 16.3951 51.4541 15.6027C51.4541 14.8103 51.6374 14.107 52.0039 13.4929C52.3804 12.8787 52.8856 12.3934 53.5195 12.0368C54.1635 11.6802 54.8964 11.5019 55.7187 11.5019C56.541 11.5019 57.2691 11.6802 57.903 12.0368C58.547 12.3934 59.0522 12.8787 59.4186 13.4929C59.7851 14.107 59.9684 14.8103 59.9684 15.6027C59.9684 16.3951 59.7851 17.0984 59.4186 17.7125C59.0522 18.3267 58.547 18.812 57.903 19.1686C57.2691 19.5252 56.541 19.7035 55.7187 19.7035ZM55.7187 17.6531C56.0753 17.6531 56.3924 17.564 56.6697 17.3856C56.947 17.2074 57.1651 16.9647 57.3235 16.6576C57.4819 16.3505 57.5562 15.9989 57.5464 15.6027C57.5562 15.2065 57.4819 14.8548 57.3235 14.5478C57.1651 14.2308 56.947 13.9832 56.6697 13.8049C56.3924 13.6266 56.0753 13.5374 55.7187 13.5374C55.3621 13.5374 55.0402 13.6266 54.7528 13.8049C54.4755 13.9832 54.2574 14.2308 54.099 14.5478C53.9406 14.8548 53.8663 15.2065 53.8761 15.6027C53.8663 15.9989 53.9406 16.3505 54.099 16.6576C54.2574 16.9647 54.4755 17.2074 54.7528 17.3856C55.0402 17.564 55.3621 17.6531 55.7187 17.6531ZM12.7892 19.4637C12.1056 19.4637 11.4864 19.3844 10.9318 19.2259C10.3869 19.0575 9.90151 18.8198 9.4755 18.5128C9.376 18.4388 9.29348 18.3762 9.22104 18.3184C9.16754 18.2757 9.1196 18.2356 9.07438 18.1953L10.1272 15.9253C10.6225 16.589 10.8525 16.7694 11.3478 16.9972C11.853 17.2251 12.373 17.3389 12.908 17.3389C13.1755 17.3389 13.4182 17.3043 13.6362 17.235C13.762 17.195 13.8712 17.145 13.9639 17.0852C14.032 17.0414 14.091 16.9922 14.1413 16.9378C14.2602 16.7991 14.3196 16.6307 14.3196 16.4327C14.3196 16.2841 14.2801 16.1503 14.2008 16.0315C14.1315 15.9126 14.0323 15.8086 13.9036 15.7194C13.8087 15.6538 13.7004 15.5935 13.5788 15.5386C13.5352 15.5189 13.49 15.5 13.443 15.4817C13.3247 15.4291 13.202 15.3831 13.075 15.3437C13.0106 15.3236 12.9451 15.3053 12.8783 15.2886C12.6802 15.2291 12.4771 15.1796 12.2691 15.14C11.6945 15.0113 11.1943 14.8527 10.7683 14.6645C10.3423 14.4763 9.98573 14.2485 9.69847 13.981C9.42108 13.7037 9.213 13.3917 9.07438 13.045C8.93561 12.6884 8.8663 12.2922 8.8663 11.8564C8.8663 11.3908 8.97034 10.9649 9.17829 10.5786C9.39622 10.1824 9.68359 9.84557 10.0401 9.56823C10.4067 9.28097 10.8278 9.06308 11.3032 8.91448C11.7787 8.756 12.2741 8.67675 12.7892 8.67675C13.4727 8.67675 14.0571 8.75104 14.5426 8.89962C15.0379 9.0383 15.4588 9.24138 15.8057 9.50885L15.8803 9.56812L15.9268 9.60537L14.8864 11.7099C14.8604 11.6499 14.7602 11.5597 14.6638 11.4825C14.5797 11.4152 14.4985 11.3577 14.4716 11.3387L14.4682 11.3363C14.2304 11.1679 13.9729 11.0392 13.6956 10.95C13.4281 10.8609 13.1507 10.8163 12.8634 10.8163C12.6884 10.8163 12.5271 10.83 12.3796 10.8575C12.2766 10.8767 12.1804 10.9026 12.0907 10.9352C11.8828 11.0045 11.7193 11.1085 11.6005 11.2472C11.4815 11.3759 11.422 11.5345 11.422 11.7226C11.422 11.891 11.4717 12.0347 11.5707 12.1535C11.6698 12.2724 11.8035 12.3813 11.9719 12.4804C12.1404 12.5695 12.3335 12.6488 12.5515 12.7182C12.7694 12.7776 12.9972 12.8271 13.2349 12.8667C13.7797 12.9757 14.2701 13.1193 14.7059 13.2976C15.1518 13.4759 15.5332 13.6938 15.8501 13.9513C16.177 14.2089 16.4247 14.516 16.5932 14.8726C16.7714 15.2192 16.8606 15.6253 16.8606 16.0909C16.8606 16.814 16.6823 17.4281 16.3256 17.9333C15.9789 18.4286 15.4985 18.8099 14.8844 19.0774C14.2801 19.3349 13.5816 19.4637 12.7892 19.4637Z" fill="black"/>
</svg>
