<svg viewBox="0 0 54 26" fill="none" xmlns="http://www.w3.org/2000/svg">
<g clip-path="url(#clip0_1807_119)">
<path d="M34.6838 0.443359L22.0586 9.08085L26.0455 9.08156L26.0459 13.071L34.6838 0.443359Z" fill="black"/>
<path d="M25.3761 9.74512L23.0524 10.0782L20.7148 14.4084L25.0454 12.075L25.3761 9.74512Z" fill="black"/>
<path d="M27.2897 2.40625L18.7305 5.75895L21.3338 8.36209L27.2897 2.40625Z" fill="black"/>
<path d="M32.6941 7.80957L29.3414 16.3688L26.7383 13.7654L32.6941 7.80957Z" fill="black"/>
<path d="M53.3414 19.9375L51.1714 23.1698V25.7794H49.7978V23.1973L47.6094 19.9375H49.1294L50.0908 21.3385C50.2282 21.5308 50.3839 21.8054 50.5121 22.0436H50.5303C50.6494 21.8147 50.8325 21.5216 50.9607 21.3385L51.9222 19.9375H53.3414Z" fill="black"/>
<path d="M45.1612 21.1004H43.4856V25.7794H42.0663V21.1004H40.3906V19.9375H45.1612V21.1004Z" fill="black"/>
<path d="M37.4778 25.7794H36.0586V19.9375H37.4778V25.7794Z" fill="black"/>
<path d="M33.6144 20.2028L33.3488 21.4024C33.0741 21.2375 32.6254 21.1001 32.1401 21.1001C31.1054 21.1001 30.2721 21.7961 30.2721 22.8766C30.2721 23.9479 31.0963 24.662 32.2043 24.662C32.6895 24.662 33.1199 24.5705 33.422 24.4057L33.303 25.6418C32.9916 25.7883 32.5705 25.8616 31.9753 25.8616C30.4645 25.8616 28.8438 24.836 28.8438 22.8582C28.8438 20.8804 30.4736 19.8457 31.9753 19.8457C32.6986 19.8457 33.2663 20.0014 33.6144 20.2028Z" fill="black"/>
<path d="M27.1265 22.8494C27.1265 24.7265 25.6066 25.9168 23.9858 25.9168C22.3742 25.9168 20.8359 24.7356 20.8359 22.8494C20.8359 20.9815 22.3651 19.791 23.9858 19.791C25.5973 19.791 27.1265 20.9722 27.1265 22.8494ZM25.6889 22.8677C25.6889 21.7781 24.8557 21.0638 23.9858 21.0638C23.1067 21.0638 22.2827 21.7781 22.2827 22.8677C22.2827 23.9573 23.1067 24.6715 23.9858 24.6715C24.8557 24.6715 25.6889 23.9573 25.6889 22.8677Z" fill="black"/>
<path d="M18.4215 25.7794H14.8047V19.9375H16.2239V24.6165H18.4215V25.7794Z" fill="black"/>
<path d="M11.9854 25.7794H8.35938V19.9375H11.7107V21.1004H9.75114V22.2541H11.3627V23.4445H9.75114V24.6165H11.9854V25.7794Z" fill="black"/>
<path d="M5.49747 19.9375L3.3823 25.816H2.21942L0.0859375 19.9375H1.54183L2.45749 22.5105C2.59483 22.8951 2.73219 23.3712 2.84206 23.8108H2.86037C2.97026 23.3804 3.1076 22.9043 3.24496 22.5105L4.16061 19.9375H5.49747Z" fill="black"/>
</g>
<defs>
<clipPath id="clip0_1807_119">
<rect width="53.2554" height="25.4738" fill="white" transform="translate(0.0859375 0.443359)"/>
</clipPath>
</defs>
</svg>
